<svg width="25" height="22" viewBox="0 0 25 22" fill="none" xmlns="http://www.w3.org/2000/svg">
<path d="M24.1758 5.22272C23.8586 4.95527 23.4752 4.77814 23.0659 4.70993C22.6566 4.64171 22.2365 4.68492 21.8497 4.83502L19.3165 5.70041C19.1024 5.77527 18.8704 5.78219 18.6522 5.72023C18.4339 5.65828 18.2402 5.53047 18.0973 5.35425L14.5527 1.03425C14.2089 0.604326 13.7469 0.28428 13.2235 0.113485C12.7157 -0.0387204 12.1742 -0.0378039 11.6669 0.116119C11.1595 0.270042 10.7089 0.570138 10.3712 0.978869L6.81965 5.34041C6.67919 5.51534 6.48845 5.64299 6.27317 5.70613C6.05789 5.76926 5.82843 5.76485 5.61573 5.69348L3.02581 4.83502C2.64007 4.68522 2.22109 4.64217 1.81296 4.7104C1.40482 4.77862 1.02262 4.9556 0.706578 5.22272C0.407332 5.51114 0.191489 5.87499 0.0818241 6.27588C-0.027841 6.67677 -0.0272616 7.09982 0.083501 7.50041L2.66581 19.0758C2.86966 19.8519 3.31744 20.5419 3.94315 21.0442C4.56887 21.5465 5.33941 21.8345 6.14119 21.8658H18.7343C19.5454 21.8657 20.3322 21.5893 20.9652 21.0821C21.5982 20.575 22.0396 19.8673 22.2166 19.0758L24.792 7.50041C24.9062 7.10062 24.9093 6.67723 24.8007 6.27586C24.6921 5.87449 24.4761 5.51036 24.1758 5.22272ZM16.3188 17.0335H8.60581C8.23892 17.0324 7.88738 16.8862 7.62795 16.6267C7.36852 16.3673 7.22229 16.0158 7.22119 15.6489C7.22119 15.2816 7.36707 14.9295 7.62674 14.6698C7.8864 14.4101 8.23858 14.2643 8.60581 14.2643H16.3188C16.5008 14.2637 16.6811 14.2991 16.8493 14.3685C17.0176 14.4379 17.1704 14.5399 17.2991 14.6686C17.4278 14.7973 17.5298 14.9501 17.5991 15.1184C17.6685 15.2866 17.704 15.4669 17.7034 15.6489C17.7031 16.0159 17.557 16.3677 17.2974 16.627C17.0378 16.8864 16.6858 17.0321 16.3188 17.0321V17.0335Z" fill="white"/>
</svg>
