<svg width="16" height="14" viewBox="0 0 16 14" fill="none" xmlns="http://www.w3.org/2000/svg">
<path d="M13.77 0H2C0.896667 0 0 0.896667 0 2V11.8667C0 12.97 0.896667 13.8667 2 13.8667H13.77C14.8733 13.8667 15.77 12.97 15.77 11.8667V2C15.77 0.896667 14.8733 0 13.77 0ZM2 1.33333H13.77C14.1367 1.33333 14.4367 1.63333 14.4367 2V3.49H1.33333V2C1.33333 1.91245 1.35058 1.82576 1.38408 1.74488C1.41758 1.66399 1.46669 1.5905 1.5286 1.5286C1.5905 1.46669 1.66399 1.41758 1.74488 1.38408C1.82576 1.35058 1.91245 1.33333 2 1.33333ZM13.77 12.5333H2C1.63333 12.5333 1.33333 12.2333 1.33333 11.8667V4.82333H14.4367V11.8667C14.4367 12.2333 14.1367 12.5333 13.77 12.5333Z" fill="#333333"/>
</svg>
