<svg width="18" height="11" viewBox="0 0 18 11" fill="none" xmlns="http://www.w3.org/2000/svg">
<path d="M1.02446 6.66667H2.04893C2.61473 6.66667 3.07339 7.11438 3.07339 7.66667V9.66667C3.07339 10.219 2.61473 10.6667 2.04893 10.6667H1.02446C0.458668 10.6667 0 10.219 0 9.66667V7.66667C0 7.11438 0.458668 6.66667 1.02446 6.66667ZM5.80532 4.66667H6.82979C7.39558 4.66667 7.85425 5.11438 7.85425 5.66667V9.66667C7.85425 10.219 7.39558 10.6667 6.82979 10.6667H5.80532C5.23953 10.6667 4.78086 10.219 4.78086 9.66667V5.66667C4.78086 5.11438 5.23953 4.66667 5.80532 4.66667ZM10.5861 2.33333H11.6106C12.1764 2.33333 12.6351 2.78105 12.6351 3.33333V9.66667C12.6351 10.219 12.1764 10.6667 11.6106 10.6667H10.5861C10.0204 10.6667 9.56168 10.219 9.56168 9.66667V3.33333C9.56168 2.78105 10.0204 2.33333 10.5861 2.33333ZM15.367 0H16.3914C16.9572 0 17.4159 0.447715 17.4159 1V9.66667C17.4159 10.219 16.9572 10.6667 16.3914 10.6667H15.367C14.8012 10.6667 14.3425 10.219 14.3425 9.66667V1C14.3425 0.447715 14.8012 0 15.367 0Z" fill="#333333"/>
</svg>
