<svg width="69" height="30" viewBox="0 0 69 30" fill="none" xmlns="http://www.w3.org/2000/svg">
<rect width="30" height="30" rx="15" fill="black" fill-opacity="0.2"/>
<path d="M22.2688 13.8182C22.2201 9.84355 18.9867 6.63557 15.0001 6.63557C11.0135 6.63557 7.78004 9.84355 7.73123 13.8182C7.06398 14.3517 6.6356 15.1708 6.6356 16.0911C6.6356 17.6976 7.93828 19.0006 9.54498 19.0006C10.2461 19.0006 10.8891 18.7521 11.3913 18.3394L10.0206 13.2237C9.86539 13.1984 9.70727 13.1816 9.545 13.1816C9.43809 13.1816 9.33299 13.1882 9.22893 13.1997C9.57959 10.3218 12.0271 8.09029 15.0002 8.09029C17.9728 8.09029 20.4207 10.3217 20.7713 13.1997C20.6677 13.1883 20.5622 13.1816 20.4553 13.1816C20.2931 13.1816 20.1346 13.1985 19.9792 13.2237L18.6089 18.337C18.9965 18.6553 19.4679 18.8753 19.9851 18.9594C19.2988 19.6967 18.426 20.2585 17.4386 20.5623L17.3182 20.6825C17.0102 20.1163 16.4174 19.7276 15.7276 19.7276C14.7231 19.7276 13.9092 20.5416 13.9092 21.5463C13.9092 22.5508 14.7231 23.3648 15.7276 23.3648C16.552 23.3648 17.2396 22.8126 17.463 22.0609C19.4698 21.5689 21.151 20.2478 22.1167 18.4773C22.8705 17.9515 23.3647 17.0796 23.3647 16.091C23.3647 15.171 22.9359 14.3516 22.269 13.8182L22.2688 13.8182Z" fill="white"/>
<rect x="39" width="30" height="30" rx="15" fill="black" fill-opacity="0.2"/>
<path d="M54.0125 5C54.2227 4.99993 54.4252 5.07934 54.5794 5.22229C54.7336 5.36524 54.828 5.56119 54.8438 5.77083L54.8463 5.83333L54.8458 6.80833C58.2292 7.1125 60.8533 10.2571 60.8533 14.05V16.525C60.8533 17.5983 61.2083 18.6292 61.8417 19.4104L62.1817 19.83C62.9188 20.7392 62.3433 22.2071 61.1346 22.2071H57.4588C57.2422 22.9327 56.7972 23.5691 56.19 24.0215C55.5828 24.474 54.8458 24.7184 54.0885 24.7184C53.3313 24.7184 52.5943 24.474 51.9871 24.0215C51.3798 23.5691 50.9349 22.9327 50.7183 22.2071H47.0417C45.8329 22.2071 45.2575 20.7388 45.995 19.83L46.335 19.41C46.9683 18.6292 47.3229 17.5983 47.3229 16.525V14.05C47.3229 10.3137 49.8696 7.20708 53.1792 6.82417V5.83333C53.1792 5.61232 53.267 5.40036 53.4232 5.24408C53.5795 5.0878 53.7915 5 54.0125 5ZM55.6417 22.2071H52.5346C52.7021 22.4669 52.9321 22.6805 53.2036 22.8285C53.475 22.9764 53.7792 23.054 54.0883 23.054C54.3975 23.054 54.7017 22.9764 54.9731 22.8285C55.2446 22.6805 55.4746 22.4669 55.6421 22.2071H55.6417ZM54.3079 8.45125H54.0125L54.0033 8.45083H53.8688C51.2371 8.45083 49.0546 10.865 48.9913 13.9133L48.9896 14.0504V16.525C48.9896 17.9754 48.5071 19.3775 47.63 20.4592L47.5638 20.54H60.6121L60.5471 20.4596C59.7033 19.4192 59.2246 18.0829 59.1888 16.6921L59.1867 16.525V14.05C59.1867 10.9375 56.9788 8.45125 54.3075 8.45125H54.3079Z" fill="white"/>
</svg>
