<svg width="16" height="16" viewBox="0 0 16 16" fill="none" xmlns="http://www.w3.org/2000/svg">
<path d="M8 0C12.4183 0 16 3.58172 16 8C16 12.4183 12.4183 16 8 16C3.58172 16 0 12.4183 0 8C0 3.58172 3.58172 0 8 0ZM6.49707 4C6.36553 3.99977 6.23868 4.05169 6.14551 4.14453C6.05242 4.23736 6.00023 4.36365 6 4.49512C5.99978 4.62654 6.05183 4.75256 6.14453 4.8457L9.30273 7.99902L6.14453 11.1523C6.05227 11.2457 6.00066 11.3717 6.00098 11.5029C6.00134 11.6342 6.05364 11.7607 6.14648 11.8535C6.23921 11.9461 6.36504 11.9986 6.49609 11.999C6.62739 11.9994 6.7543 11.9468 6.84766 11.8545L10.3555 8.34961C10.4018 8.30384 10.4388 8.24857 10.4639 8.18848C10.4889 8.1285 10.502 8.06401 10.502 7.99902C10.5019 7.934 10.4889 7.86958 10.4639 7.80957C10.4388 7.74954 10.4017 7.69516 10.3555 7.64941L6.84766 4.14551C6.75486 4.05239 6.62852 4.00029 6.49707 4Z" fill="white"/>
</svg>
