<svg width="21" height="21" viewBox="0 0 21 21" fill="none" xmlns="http://www.w3.org/2000/svg">
<path d="M3.07892 17.2336H5.26017L5.62814 17.4617C6.98712 18.3067 8.55604 18.753 10.1563 18.75C14.9024 18.75 18.75 14.9023 18.75 10.1562C18.75 5.41016 14.9024 1.5625 10.1563 1.5625C5.41017 1.5625 1.56251 5.41016 1.56251 10.1562C1.56251 11.7812 2.01251 13.3359 2.85079 14.6844L3.07892 15.0516V17.2336ZM2.53908 18.7891C2.26972 18.7891 2.01139 18.6821 1.82092 18.4916C1.63045 18.3011 1.52345 18.0428 1.52345 17.7734V15.5094C0.524775 13.9027 -0.00304289 12.048 1.31962e-05 10.1562C1.31962e-05 4.54688 4.54689 0 10.1563 0C15.7656 0 20.3125 4.54688 20.3125 10.1562C20.3125 15.7656 15.7656 20.3125 10.1563 20.3125C8.2645 20.3156 6.40982 19.7877 4.80314 18.7891H2.53908ZM6.25001 11.7188C5.93921 11.7188 5.64114 11.5953 5.42137 11.3755C5.2016 11.1557 5.07814 10.8577 5.07814 10.5469C5.07814 10.2361 5.2016 9.938 5.42137 9.71823C5.64114 9.49846 5.93921 9.375 6.25001 9.375C6.56081 9.375 6.85889 9.49846 7.07865 9.71823C7.29842 9.938 7.42189 10.2361 7.42189 10.5469C7.42189 10.8577 7.29842 11.1557 7.07865 11.3755C6.85889 11.5953 6.56081 11.7188 6.25001 11.7188ZM10.1563 11.7188C9.84546 11.7188 9.54739 11.5953 9.32762 11.3755C9.10785 11.1557 8.98439 10.8577 8.98439 10.5469C8.98439 10.2361 9.10785 9.938 9.32762 9.71823C9.54739 9.49846 9.84546 9.375 10.1563 9.375C10.4671 9.375 10.7651 9.49846 10.9849 9.71823C11.2047 9.938 11.3281 10.2361 11.3281 10.5469C11.3281 10.8577 11.2047 11.1557 10.9849 11.3755C10.7651 11.5953 10.4671 11.7188 10.1563 11.7188ZM14.0625 11.7188C13.7517 11.7188 13.4536 11.5953 13.2339 11.3755C13.0141 11.1557 12.8906 10.8577 12.8906 10.5469C12.8906 10.2361 13.0141 9.938 13.2339 9.71823C13.4536 9.49846 13.7517 9.375 14.0625 9.375C14.3733 9.375 14.6714 9.49846 14.8912 9.71823C15.1109 9.938 15.2344 10.2361 15.2344 10.5469C15.2344 10.8577 15.1109 11.1557 14.8912 11.3755C14.6714 11.5953 14.3733 11.7188 14.0625 11.7188Z" fill="#333333"/>
</svg>
