<svg width="24" height="23" viewBox="0 0 24 23" fill="none" xmlns="http://www.w3.org/2000/svg">
<path d="M23.7376 8.99394C23.5974 8.2532 23.1451 7.7746 22.5853 7.7746C22.5781 7.7746 22.5708 7.77467 22.5669 7.77481H22.4638C20.8448 7.77481 19.5276 6.45765 19.5276 4.83861C19.5276 4.3132 19.7811 3.72416 19.7832 3.71908C20.0734 3.06597 19.8502 2.26508 19.2645 1.85649L19.2291 1.83153L16.2534 0.178502L16.2158 0.161999C16.022 0.077743 15.8099 0.0350184 15.5853 0.0350184C15.125 0.0350184 14.6723 0.21976 14.3745 0.528891C14.0482 0.865777 12.9216 1.8274 12.056 1.8274C11.1825 1.8274 10.0493 0.846887 9.72155 0.503761C9.42224 0.188322 8.96595 0 8.50102 0C8.28082 0 8.07252 0.0412242 7.88201 0.122479L7.84335 0.13888L4.76271 1.83109L4.72633 1.85632C4.13879 2.26454 3.91432 3.06471 4.20416 3.71748C4.20671 3.72334 4.46054 4.30918 4.46054 4.83855C4.46054 6.45758 3.14337 7.77474 1.52434 7.77474H1.4229C1.41584 7.7746 1.40882 7.7745 1.40183 7.7745C0.842557 7.7745 0.390624 8.25313 0.250482 8.99401C0.240253 9.04833 0 10.3362 0 11.3435C0 12.3507 0.240253 13.6385 0.250517 13.693C0.390761 14.4338 0.842966 14.9124 1.40261 14.9124C1.40971 14.9124 1.41704 14.9123 1.42126 14.9121H1.52434C3.14337 14.9121 4.46054 16.2293 4.46054 17.8483C4.46054 18.3743 4.20716 18.9627 4.20491 18.9678C3.91501 19.6204 4.13756 20.4212 4.72289 20.831L4.75763 20.8552L7.67657 22.4875L7.71367 22.5038C7.90742 22.5889 8.11896 22.632 8.3424 22.632C8.80917 22.632 9.26512 22.4393 9.56208 22.1164C9.97664 21.6659 11.1014 20.7357 11.9321 20.7357C12.8316 20.7357 13.9851 21.7785 14.318 22.1434C14.6156 22.4718 15.0746 22.6679 15.5461 22.668H15.5462C15.7653 22.668 15.9731 22.6263 16.1638 22.5441L16.2017 22.5277L19.2274 20.8554L19.2632 20.8304C19.8497 20.4218 20.0735 19.6216 19.7843 18.9703C19.7818 18.9644 19.5276 18.3707 19.5276 17.8483C19.5276 16.2293 20.8448 14.9122 22.4638 14.9122L22.5638 14.9121C22.5705 14.9123 22.5771 14.9123 22.5837 14.9123C23.1446 14.9123 23.5974 14.4337 23.7374 13.6934C23.7399 13.6803 23.9881 12.3759 23.9881 11.3434C23.9881 10.3315 23.7478 9.04812 23.7376 8.99394ZM8.35764 20.937L5.80426 19.5093C5.91679 19.2203 6.14606 18.5458 6.14606 17.8484C6.14606 15.4266 4.28238 13.4244 1.88213 13.2402C1.82352 12.8987 1.68566 12.0232 1.68566 11.3435C1.68566 10.6648 1.82345 9.78856 1.88203 9.44673C4.28238 9.2627 6.14606 7.26048 6.14606 4.83858C6.14606 4.14302 5.91801 3.47037 5.80573 3.18129L8.52281 1.68897C8.52288 1.68897 8.52291 1.689 8.52298 1.689C8.62091 1.78904 9.01276 2.17786 9.55379 2.5634C10.4378 3.19357 11.2797 3.5131 12.056 3.5131C12.8246 3.5131 13.6597 3.19977 14.5382 2.58178C15.0758 2.20364 15.4658 1.82232 15.5635 1.72395C15.5637 1.72392 15.5639 1.72385 15.5641 1.72381L18.1833 3.17901C18.0709 3.46805 17.842 4.1421 17.842 4.83861C17.842 7.26051 19.7056 9.26273 22.106 9.44676C22.1646 9.7891 22.3024 10.6668 22.3024 11.3436C22.3024 12.023 22.1646 12.8987 22.106 13.2404C19.7057 13.4244 17.842 15.4266 17.842 17.8485C17.842 18.5448 18.0704 19.2179 18.1828 19.5069L15.5308 20.9726C15.4164 20.851 15.0303 20.4553 14.496 20.0584C13.5948 19.3893 12.7322 19.05 11.9321 19.05C11.1397 19.05 10.2836 19.3829 9.3876 20.0395C8.86096 20.4256 8.47231 20.8175 8.35764 20.937ZM16.1905 11.328C16.1905 8.98545 14.2847 7.07969 11.9421 7.07969C9.59955 7.07969 7.69379 8.98545 7.69379 11.328C7.69379 13.6705 9.59955 15.5763 11.9421 15.5763C14.2847 15.5763 16.1905 13.6705 16.1905 11.328ZM11.9421 8.76538C13.3552 8.76538 14.5048 9.91496 14.5048 11.328C14.5048 12.7411 13.3552 13.8907 11.9421 13.8907C10.5291 13.8907 9.37949 12.7411 9.37949 11.328C9.37949 9.91492 10.5291 8.76538 11.9421 8.76538Z" fill="#333333"/>
</svg>
