<svg width="7" height="6" viewBox="0 0 7 6" fill="none" xmlns="http://www.w3.org/2000/svg">
<path d="M0.71952 1.43904H6.11592C6.30675 1.43904 6.48976 1.36323 6.6247 1.2283C6.75964 1.09336 6.83544 0.910349 6.83544 0.71952C6.83544 0.528692 6.75964 0.345679 6.6247 0.210743C6.48976 0.0758066 6.30675 0 6.11592 0H0.71952C0.528691 0 0.345679 0.0758066 0.210743 0.210743C0.0758066 0.345679 0 0.528692 0 0.71952C0 0.910349 0.0758066 1.09336 0.210743 1.2283C0.345679 1.36323 0.528691 1.43904 0.71952 1.43904ZM0.71952 5.93604H6.11592C6.30675 5.93604 6.48976 5.86024 6.6247 5.7253C6.75964 5.59036 6.83544 5.40735 6.83544 5.21652C6.83544 5.02569 6.75964 4.84268 6.6247 4.70775C6.48976 4.57281 6.30675 4.497 6.11592 4.497H0.71952C0.528691 4.497 0.345679 4.57281 0.210743 4.70775C0.0758066 4.84268 0 5.02569 0 5.21652C0 5.40735 0.0758066 5.59036 0.210743 5.7253C0.345679 5.86024 0.528691 5.93604 0.71952 5.93604Z" fill="#333333"/>
</svg>
