<svg width="20" height="17" viewBox="0 0 20 17" fill="none" xmlns="http://www.w3.org/2000/svg">
<path d="M3.41772 0H16.0093C16.9158 0 17.7851 0.360081 18.426 1.00103C19.067 1.64198 19.4271 2.51129 19.4271 3.41772V6.68255L18.8685 6.81026C18.4148 6.91464 18.0097 7.16956 17.7193 7.53351C17.4289 7.89746 17.2703 8.349 17.2692 8.8146C17.2682 9.28021 17.4248 9.73245 17.7136 10.0977C18.0023 10.4629 18.4062 10.7197 18.8595 10.8261L19.4271 10.9592V13.3111C19.4271 14.2176 19.067 15.0869 18.426 15.7278C17.7851 16.3688 16.9158 16.7289 16.0093 16.7289H3.41772C2.51129 16.7289 1.64198 16.3688 1.00103 15.7278C0.360081 15.0869 0 14.2176 0 13.3111V10.9916L0.569321 10.8585C1.02342 10.7516 1.42797 10.4942 1.71707 10.1281C2.00618 9.76201 2.16282 9.3088 2.16146 8.84231C2.1601 8.37582 2.00084 7.92353 1.70961 7.55912C1.41838 7.1947 1.01234 6.93963 0.557628 6.83544L0 6.70683V3.41772C0 2.51129 0.360081 1.64198 1.00103 1.00103C1.64198 0.360081 2.51129 0 3.41772 0ZM17.988 3.41772C17.988 2.89294 17.7795 2.38966 17.4085 2.01858C17.0374 1.64751 16.5341 1.43904 16.0093 1.43904H3.41772C2.89294 1.43904 2.38966 1.64751 2.01858 2.01858C1.64751 2.38966 1.43904 2.89294 1.43904 3.41772V5.61136C2.07909 5.8767 2.62611 6.32582 3.01096 6.90197C3.39581 7.47813 3.60122 8.15544 3.60122 8.8483C3.60122 9.54117 3.39581 10.2185 3.01096 10.7946C2.62611 11.3708 2.07909 11.8199 1.43904 12.0852V13.3111C1.43904 13.8359 1.64751 14.3392 2.01858 14.7103C2.38966 15.0813 2.89294 15.2898 3.41772 15.2898H16.0093C16.5341 15.2898 17.0374 15.0813 17.4085 14.7103C17.7795 14.3392 17.988 13.8359 17.988 13.3111V12.052C17.3488 11.7868 16.8025 11.3382 16.4182 10.7627C16.0338 10.1872 15.8287 9.51065 15.8287 8.81862C15.8287 8.12659 16.0338 7.45009 16.4182 6.87459C16.8025 6.29909 17.3488 5.85042 17.988 5.58528V3.41772Z" fill="#333333"/>
</svg>
