<svg width="21" height="21" viewBox="0 0 21 21" fill="none" xmlns="http://www.w3.org/2000/svg">
<path d="M12.5011 19.0075C12.3289 19.0507 12.1555 19.0886 11.9811 19.121C11.5274 19.206 11.2274 19.6456 11.3113 20.103C11.3509 20.3194 11.4732 20.5114 11.6519 20.6379C11.7429 20.7027 11.8459 20.7484 11.9548 20.7724C12.0637 20.7963 12.1762 20.7981 12.2857 20.7775C12.4935 20.7387 12.7001 20.6935 12.9052 20.642C13.3532 20.5297 13.6262 20.0724 13.5144 19.6213C13.4029 19.1698 12.9494 18.8951 12.5011 19.0075V19.0075ZM18.6845 7.7178C18.7406 7.88893 18.8499 8.03733 18.9962 8.14108C19.2056 8.28965 19.4796 8.33965 19.7412 8.25255C20.1796 8.10589 20.4172 7.62966 20.2721 7.18823C20.2057 6.98617 20.1331 6.78619 20.0546 6.58859C19.8831 6.15666 19.3967 5.94638 18.9677 6.11915C18.5391 6.29184 18.3303 6.78188 18.5019 7.21395C18.5679 7.37999 18.6288 7.54802 18.6846 7.7178H18.6845ZM15.2182 17.8049C15.07 17.9035 14.9189 17.9976 14.765 18.0869C14.3649 18.3194 14.2279 18.8346 14.4586 19.2375C14.519 19.3433 14.6017 19.4347 14.7007 19.5051C14.9587 19.6879 15.309 19.7153 15.6007 19.546C15.7838 19.4397 15.9636 19.3278 16.14 19.2104C16.5251 18.9541 16.6311 18.4315 16.3766 18.0434C16.122 17.6551 15.6034 17.5484 15.2181 17.8049H15.2182ZM20.792 10.0703C20.7738 9.60539 20.3851 9.24354 19.9235 9.26168C19.4624 9.28002 19.1029 9.67172 19.121 10.1364C19.1279 10.3141 19.1297 10.4944 19.1257 10.6719C19.1192 10.9635 19.2608 11.2234 19.4807 11.3795C19.6164 11.4758 19.7774 11.5291 19.9433 11.5327C20.4048 11.543 20.7872 11.1743 20.7975 10.7092C20.8021 10.4962 20.8003 10.2831 20.792 10.0703ZM18.5481 15.5892C18.178 15.3095 17.6544 15.3854 17.3773 15.7575C17.2707 15.9005 17.1599 16.0401 17.0449 16.1763C16.7457 16.5303 16.788 17.062 17.1394 17.3636C17.1591 17.3804 17.1796 17.3963 17.2007 17.4111C17.5501 17.6593 18.0357 17.6023 18.3182 17.2683C18.4555 17.1058 18.5878 16.939 18.7149 16.7683C18.9922 16.3962 18.9171 15.8685 18.5481 15.5892ZM19.7772 12.5444C19.3366 12.4052 18.8673 12.6523 18.7293 13.0962C18.6761 13.2668 18.6179 13.4359 18.5546 13.603C18.4158 13.9703 18.5488 14.3745 18.8537 14.5911C18.9109 14.6316 18.9729 14.6648 19.0382 14.6897C19.4697 14.8556 19.9527 14.6375 20.1172 14.2028C20.1923 14.004 20.2616 13.803 20.3249 13.6001C20.4629 13.1561 20.2178 12.6836 19.7772 12.5444ZM8.85293 19.1286C8.11134 18.995 7.3903 18.7641 6.70817 18.442C6.70013 18.4378 6.69294 18.4329 6.68447 18.4291C6.52373 18.353 6.36523 18.2721 6.20918 18.1867C6.20865 18.1861 6.20767 18.1857 6.20682 18.1853C5.92018 18.0262 5.64245 17.8514 5.37488 17.6616C1.44151 14.8705 0.495755 9.37635 3.26673 5.41427C3.86928 4.55305 4.59844 3.83454 5.41134 3.26506C5.42136 3.25804 5.43137 3.25106 5.4413 3.24398C8.30585 1.25579 12.1955 1.12181 15.2372 3.16486L14.5839 4.11568C14.4023 4.38032 14.514 4.57318 14.832 4.54433L17.6697 4.28843C17.9881 4.25962 18.1784 3.98221 18.0928 3.67254L17.3308 0.906872C17.2455 0.596828 17.0271 0.559712 16.8453 0.824313L16.1905 1.77738C13.9583 0.26798 11.2809 -0.307545 8.62358 0.156611C8.35758 0.2031 8.09346 0.259887 7.8318 0.326846C7.82977 0.327214 7.82815 0.32746 7.82656 0.327808C7.81649 0.330283 7.80629 0.333578 7.7965 0.336319C5.50502 0.929072 3.50572 2.27532 2.07909 4.19613C2.06707 4.21049 2.05468 4.22457 2.04332 4.24018C1.99566 4.30496 1.94878 4.37031 1.9027 4.43624C1.82701 4.54451 1.7534 4.65425 1.6819 4.76537C1.67303 4.77871 1.66622 4.79226 1.65844 4.80572C0.481191 6.64336 -0.0866654 8.76784 0.0107128 10.9307C0.0109362 10.9378 0.01053 10.945 0.0107128 10.9522C0.0203756 11.1648 0.0365996 11.377 0.0593612 11.5886C0.06058 11.6022 0.0635659 11.6151 0.0658612 11.6287C0.0891028 11.8419 0.118888 12.0544 0.155175 12.2658C0.528255 14.4339 1.54358 16.3848 3.065 17.9028C3.06852 17.9064 3.07219 17.9102 3.07577 17.9139C3.07703 17.9153 3.07841 17.916 3.07963 17.9174C3.49228 18.3274 3.93782 18.7025 4.41172 19.0387C5.66456 19.9279 7.0596 20.5158 8.55781 20.7866C9.01241 20.8689 9.44665 20.564 9.5282 20.1064C9.60971 19.6484 9.30736 19.2106 8.85291 19.1286H8.85293Z" fill="#333333"/>
</svg>
