<svg width="11" height="11" viewBox="0 0 11 11" fill="none" xmlns="http://www.w3.org/2000/svg">
<path d="M10.4558 0.372173C10.377 0.295411 10.2773 0.243681 10.1692 0.223497L7.39583 0.000172847C7.25148 -0.00341466 7.11134 0.0489602 7.00472 0.146339C6.8981 0.243718 6.83328 0.378555 6.8238 0.522638C6.81433 0.666721 6.86094 0.808885 6.95389 0.919386C7.04684 1.02989 7.17892 1.10016 7.32249 1.1155L8.7825 1.26417L6.88916 3.1975C6.35912 2.74695 5.73741 2.4171 5.06716 2.23082C4.53164 2.11224 3.9779 2.10114 3.43805 2.19819C2.8982 2.29523 2.38299 2.49848 1.92229 2.79614C1.46159 3.09381 1.06457 3.47997 0.754242 3.93225C0.443916 4.38452 0.226462 4.89389 0.11449 5.43084C-0.144306 6.52667 0.0395728 7.68036 0.626208 8.64144C1.21284 9.60252 2.15488 10.2934 3.24783 10.5642C3.78798 10.6883 4.34743 10.7038 4.89361 10.6097C5.4398 10.5155 5.9618 10.3137 6.42923 10.0159C6.89665 9.71809 7.30017 9.33027 7.61628 8.87502C7.93239 8.41977 8.15478 7.90619 8.27049 7.36417C8.39781 6.80783 8.41207 6.23159 8.31244 5.66964C8.21281 5.1077 8.00131 4.57148 7.6905 4.09283L9.43717 2.2335L9.36383 3.57217C9.35728 3.71809 9.40681 3.86099 9.50226 3.97156C9.59771 4.08213 9.73184 4.152 9.87716 4.16683C10.0224 4.17171 10.1638 4.12024 10.2719 4.02319C10.38 3.92615 10.4464 3.79105 10.4572 3.64617L10.6772 0.820837C10.6795 0.734217 10.6607 0.648335 10.6223 0.570624C10.584 0.492912 10.5273 0.42571 10.4572 0.374833L10.4558 0.372173ZM7.03583 7.06417C6.95137 7.44703 6.79141 7.8092 6.56531 8.1295C6.3392 8.4498 6.05149 8.7218 5.719 8.92957C5.38652 9.13734 5.01593 9.27672 4.62893 9.33955C4.24194 9.40238 3.84629 9.38741 3.46515 9.2955C2.69339 9.09999 2.03036 8.607 1.6209 7.92423C1.21144 7.24146 1.08881 6.42439 1.27981 5.65151C1.36394 5.26862 1.52366 4.90639 1.74959 4.58603C1.97553 4.26567 2.26315 3.99364 2.59559 3.78589C2.92802 3.57813 3.29859 3.43883 3.68556 3.37614C4.07253 3.31346 4.46812 3.32866 4.84915 3.42084C5.60716 3.63846 6.2544 4.13553 6.66024 4.81172C7.06608 5.48791 7.20031 6.29288 7.03583 7.06417Z" fill="#16A9FA"/>
</svg>
