<svg width="24" height="11" viewBox="0 0 24 11" fill="none" xmlns="http://www.w3.org/2000/svg">
<path d="M0.191414 5.75861C0.136008 5.65786 0 5.70321 0 5.8241V7.40597C0 8.85182 2.68008 10.0206 5.98488 10.0206C9.28969 10.0206 11.9698 8.85182 11.9698 7.40597V5.8241C11.9698 5.71329 11.8337 5.65786 11.7783 5.75861C11.1033 6.88204 8.75566 7.71328 5.98488 7.71328C3.2141 7.71328 0.866484 6.87703 0.191391 5.75357L0.191414 5.75861ZM23.2695 1.91939C23.2695 0.856404 20.9723 -2.63561e-05 18.131 -2.63561e-05C15.2897 -2.63561e-05 12.9924 0.861442 12.9924 1.91936C12.9924 2.97729 15.2897 3.83878 18.131 3.83878C20.9723 3.83878 23.2695 2.97733 23.2695 1.91939Z" fill="#333333"/>
</svg>
