<svg width="18" height="20" viewBox="0 0 18 20" fill="none" xmlns="http://www.w3.org/2000/svg">
<path d="M7.97713 0.38999L0.529826 6.93185C0.363294 7.07812 0.229924 7.25799 0.138575 7.45952C0.0472253 7.66105 -1.21754e-05 7.87963 2.35397e-09 8.10074V18.4415C8.43485e-09 18.8548 0.164906 19.2512 0.458442 19.5435C0.751977 19.8358 1.1501 20 1.56522 20H16.4348C16.8499 20 17.248 19.8358 17.5416 19.5435C17.8351 19.2512 18 18.8548 18 18.4415V8.09957C18 7.87894 17.9529 7.66083 17.8619 7.45966C17.7709 7.25849 17.6381 7.07886 17.4721 6.93263L10.0499 0.391549C9.76404 0.139609 9.3956 0.000359482 9.01387 6.95056e-07C8.63214 -0.000358092 8.26344 0.138588 7.97713 0.38999ZM1.56522 8.10074L9.01252 1.5581L16.4348 8.09957V18.4415H1.56522V8.10074Z" fill="#333333"/>
</svg>
