<svg width="21" height="19" viewBox="0 0 21 19" fill="none" xmlns="http://www.w3.org/2000/svg">
<path d="M2.6478 14.5103C2.6478 14.8775 2.77497 15.1882 3.02912 15.4423C3.28335 15.6965 3.59404 15.8236 3.9612 15.8236H7.92236V18.4716H2.6478C2.28064 18.4716 1.93822 18.4009 1.62046 18.2597C1.3027 18.1184 1.02382 17.9278 0.783717 17.6877C0.543711 17.4476 0.352993 17.1688 0.2118 16.851C0.070584 16.5333 0 16.1908 0 15.8236V2.62672C0 2.27361 0.070584 1.93472 0.2118 1.60988C0.353017 1.28512 0.543711 1.00614 0.783717 0.773212C1.02382 0.540186 1.30268 0.353017 1.62046 0.2118C1.93822 0.0705842 2.28064 0 2.6478 0H17.1581C17.5253 0 17.8678 0.0705842 18.1855 0.2118C18.5032 0.353017 18.7821 0.540162 19.0222 0.773212C19.2623 1.00614 19.4529 1.28512 19.5943 1.60988C19.7355 1.93472 19.8061 2.27361 19.8061 2.62672V7.83772L17.1581 7.85885V6.58785C17.1581 6.22069 17.0311 5.9101 16.7768 5.65585C16.5227 5.40162 16.212 5.27455 15.8448 5.27455H3.9612C3.59404 5.27455 3.28335 5.40162 3.02912 5.65585C2.77497 5.91007 2.6478 6.22069 2.6478 6.58785V14.5103ZM20.4839 13.2605C20.7805 13.5147 20.9323 13.7512 20.9392 13.9701C20.9463 14.189 20.8016 14.4185 20.505 14.6586C20.2085 14.9128 19.8554 15.1988 19.4459 15.5165C19.0364 15.8342 18.6163 16.1662 18.1855 16.5121C17.7548 16.8581 17.3276 17.197 16.904 17.5289C16.4803 17.8608 16.0991 18.1609 15.7601 18.4292C15.3929 18.7116 15.0928 18.8175 14.8598 18.7469C14.6268 18.6763 14.5103 18.4574 14.5103 18.0902C14.5245 17.8643 14.5245 17.5854 14.5103 17.2535C14.4962 16.9216 14.4891 16.6356 14.4891 16.3956C14.4891 16.1272 14.415 15.9613 14.2667 15.8977C14.1184 15.8342 13.9031 15.8025 13.6207 15.8025C13.3241 15.8025 13.0488 15.799 12.7945 15.7919C12.5403 15.7848 12.2932 15.7813 12.0531 15.7813C11.813 15.7813 11.5624 15.7778 11.3011 15.7707C11.0399 15.7636 10.7538 15.7601 10.4432 15.7601C10.3161 15.7601 10.1784 15.7459 10.0301 15.7177C9.8818 15.6895 9.74766 15.6401 9.62767 15.5695C9.50759 15.4989 9.40877 15.3929 9.33111 15.2517C9.25343 15.1105 9.21458 14.9198 9.21458 14.6798V13.0063C9.21458 12.5685 9.32051 12.2755 9.53234 12.1272C9.74414 11.979 10.076 11.9048 10.5279 11.9048C10.9516 11.919 11.3752 11.926 11.7988 11.926C12.2226 11.926 12.7168 11.9331 13.2817 11.9471C13.6913 11.9471 14.009 11.9119 14.235 11.8413C14.4609 11.7707 14.5738 11.5941 14.5738 11.3117C14.5597 11.114 14.5632 10.8704 14.5845 10.5809C14.6057 10.2914 14.6162 10.0336 14.6162 9.80767C14.6162 9.4405 14.7151 9.21103 14.9128 9.11919C15.1105 9.02748 15.3646 9.10161 15.6753 9.34159C15.986 9.59582 16.3497 9.8924 16.7663 10.2313C17.1829 10.5703 17.61 10.9198 18.0478 11.2798C18.4856 11.6401 18.9199 11.993 19.3506 12.339C19.7813 12.685 20.1591 12.9922 20.4839 13.2605Z" fill="#333333"/>
</svg>
