<svg width="24" height="24" viewBox="0 0 24 24" fill="none" xmlns="http://www.w3.org/2000/svg">
<path d="M19.8047 13.3008C21.9937 13.3219 23.7867 11.5664 23.8148 9.37734C23.8148 8.98359 23.7516 8.58984 23.6297 8.21484C23.6203 8.13516 23.5992 8.05781 23.5688 7.98516L22.0008 2.27344C21.5977 0.958594 20.4023 0.0445312 19.0266 0H4.78828C3.4125 0.0421875 2.21719 0.95625 1.81172 2.27344L0.215625 8.1C0.208594 8.12344 0.203906 8.14688 0.199219 8.16797C0.0679688 8.55937 0 8.96719 0 9.37969C0.028125 11.5711 1.82109 13.3242 4.0125 13.3031C5.01328 13.3031 5.97656 12.9328 6.72188 12.2672C8.175 13.6148 10.4109 13.6523 11.9086 12.3563C12.6117 12.9727 13.5164 13.3078 14.4492 13.3031C15.4289 13.3055 16.3758 12.9352 17.093 12.2648C17.8406 12.9328 18.8062 13.3008 19.8047 13.3008ZM17.0602 9.975C16.7414 10.0102 16.4648 10.207 16.3266 10.4953C15.9586 11.1961 15.2438 11.6484 14.4516 11.6766C13.7203 11.6977 13.0312 11.3297 12.6398 10.7109C12.4734 10.4789 12.1945 10.357 11.9133 10.3875C11.632 10.3547 11.3531 10.4789 11.1867 10.7086C10.7883 11.318 10.0969 11.6719 9.36797 11.6344C8.58984 11.6391 7.87031 11.2172 7.49297 10.5352C7.34297 10.268 7.06406 10.1016 6.75938 10.0969C6.45469 10.0922 6.16875 10.2492 6.00938 10.5094C5.5875 11.2078 4.83047 11.6367 4.0125 11.6367C2.75156 11.6484 1.71797 10.6383 1.70156 9.37734C1.70156 9.1125 1.75078 8.84766 1.84687 8.59922C1.87031 8.53594 1.88672 8.47031 1.89375 8.40234L3.45703 2.7C3.64922 2.11641 4.17422 1.70625 4.78828 1.66172H19.0266C19.6406 1.70391 20.168 2.11641 20.3602 2.7L21.9211 8.39297C21.9281 8.46094 21.9445 8.52656 21.968 8.58984C22.0617 8.83594 22.1109 9.09609 22.1133 9.35859C22.1063 9.96328 21.8578 10.5398 21.4242 10.9594C20.9906 11.3813 20.407 11.6109 19.8023 11.6016C18.9797 11.5898 18.225 11.1516 17.8055 10.4438C17.6578 10.1719 17.3813 9.99141 17.0719 9.96797L17.0602 9.975ZM11.918 21.6141H4.26797C3.80156 21.6187 3.41953 21.2484 3.41016 20.782V14.9625C3.41016 14.4938 3.03047 14.1117 2.55937 14.1117C2.09062 14.1117 1.70859 14.4914 1.70859 14.9625V20.782C1.72969 22.1766 2.87344 23.2898 4.26562 23.2758H11.9156C12.375 23.2758 12.7477 22.9031 12.7477 22.4437C12.7477 21.9844 12.3773 21.6117 11.918 21.6141ZM22.9664 18.2883H20.4117V15.7945C20.4117 15.3258 20.032 14.9437 19.5609 14.9437C19.0922 14.9437 18.7102 15.3234 18.7102 15.7945V18.2883H16.1695C15.8719 18.2883 15.5977 18.4477 15.45 18.7031C15.3023 18.9609 15.3023 19.2773 15.45 19.5352C15.5977 19.793 15.8719 19.95 16.1695 19.95H18.7102V22.4414C18.7102 22.9102 19.0898 23.2922 19.5609 23.2922C20.0297 23.2922 20.4117 22.9125 20.4117 22.4414V19.95H22.9688C23.2664 19.95 23.5406 19.7906 23.6883 19.5352C23.8359 19.2773 23.8359 18.9609 23.6883 18.7031C23.5406 18.4453 23.2664 18.2883 22.9688 18.2883H22.9664Z" fill="#333333"/>
</svg>
