<svg width="20" height="20" viewBox="0 0 20 20" fill="none" xmlns="http://www.w3.org/2000/svg">
<path d="M10 0C6.99393 0 4.55696 2.31506 4.55696 5.17076C4.55696 8.02646 6.99393 10.3415 10 10.3415C13.0061 10.3415 15.443 8.02646 15.443 5.17076C15.443 2.31506 13.0061 0 10 0ZM10 10.6205C6.28405 10.6205 3.1676 11.9788 0.712405 14.6662C0.25289 15.1693 -7.29394e-05 15.813 1.57759e-08 16.4791V17.4747C1.57759e-08 18.8696 1.18987 20 2.65823 20H17.3418C18.8101 20 20 18.8696 20 17.4747V16.4791C20.0001 15.813 19.7471 15.1693 19.2876 14.6662C16.8324 11.9788 13.716 10.6205 10 10.6205Z" fill="#333333"/>
</svg>
