<svg width="18" height="18" viewBox="0 0 18 18" fill="none" xmlns="http://www.w3.org/2000/svg">
<path d="M1.95556 0C0.88 0 0 0.931765 0 2.07059V12.9412C0 14.08 0.88 15.0118 1.95556 15.0118H5.96444L8.11555 17.2894C8.50667 17.7035 9.09333 17.7035 9.48444 17.2894L11.6356 15.0118H15.6444C16.72 15.0118 17.6 14.08 17.6 12.9412V2.07059C17.6 0.931765 16.72 0 15.6444 0H1.95556ZM1.95556 1.55294H15.6444C15.8889 1.55294 16.0844 1.76 16.1333 2.01882V12.9412C16.1333 13.2 15.9378 13.4071 15.6933 13.4588H11.0489L8.8 15.84L6.55111 13.4588H1.95556C1.71111 13.4588 1.51556 13.2518 1.46667 12.9929V2.07059C1.46667 1.81176 1.66222 1.60471 1.90667 1.55294H1.95556Z" fill="#333333"/>
</svg>
