<svg width="22" height="22" viewBox="0 0 22 22" fill="none" xmlns="http://www.w3.org/2000/svg">
<path d="M15.4826 6.6339C16.4035 5.74004 17.4893 4.39872 17.4893 2.98334C17.4893 2.16457 17.239 1.49391 16.6539 0.970314C15.565 0.00135002 13.6395 0.00135002 11.4638 0.00135002H9.87425C7.86644 0.00135002 6.1924 -0.0737473 5.10557 0.89626C4.5194 1.41777 4.26907 2.08947 4.26907 2.98334C4.26907 4.99636 6.27688 6.78514 7.19787 7.4558C7.53372 7.75515 8.1199 7.68005 8.37022 7.3807C8.70503 7.0824 8.62054 6.56193 8.28678 6.33769C6.86515 5.21957 5.9452 3.95335 5.9452 2.98334C5.9452 2.23758 6.19553 2.01333 6.28001 1.94032C6.86619 1.49391 8.28782 1.49391 9.87842 1.49391H11.6349C13.3924 1.49391 15.0674 1.49391 15.6536 2.01542C15.6536 2.09156 15.9039 2.31581 15.9039 2.98543C15.9039 3.88033 14.9819 5.1476 13.4758 6.26572C13.3629 6.3313 13.2763 6.43398 13.2307 6.55627C13.185 6.67856 13.1832 6.81289 13.2255 6.93638C13.3079 7.15958 13.4758 7.38279 13.7282 7.5309C16.8228 8.57183 20.0864 11.4036 20.0864 15.2784C20.0864 18.929 17.5759 20.2703 10.8818 20.2703C4.18563 20.2703 1.67717 18.929 1.67717 15.2784C1.67717 13.0422 2.84848 10.806 4.94182 9.16739C5.27663 8.86805 5.35903 8.42164 5.0263 8.12438C4.69045 7.82607 4.1898 7.75306 3.855 8.04928C1.42476 9.98929 0 12.5948 0 15.2774C0 21.7608 7.36371 21.7608 10.8787 21.7608C14.3937 21.7608 21.7594 21.7608 21.7594 15.2784C21.8439 11.703 19.251 8.34863 15.4836 6.63495L15.4826 6.6339Z" fill="#333333"/>
</svg>
