<svg width="12" height="8" viewBox="0 0 12 8" fill="none" xmlns="http://www.w3.org/2000/svg">
<path d="M3.70414 7.2C3.51498 7.19424 3.33546 7.11817 3.20322 6.98772L0.213214 4.12123C-0.0710714 3.83709 -0.0710714 3.38713 0.213214 3.10299C0.352393 2.9681 0.541645 2.89209 0.739071 2.89209C0.936497 2.89209 1.12575 2.9679 1.26493 3.10299L3.70394 5.46754L9.93431 0.212471C10.0719 0.0765995 10.2607 0 10.4577 0C10.6547 0 10.8436 0.0765995 10.9811 0.212471C11.1211 0.34657 11.2 0.528913 11.2 0.719133C11.2 0.909353 11.1213 1.0917 10.9811 1.2258L4.22979 6.98753C4.09072 7.12266 3.90166 7.19908 3.70414 7.2Z" fill="#333333"/>
</svg>
