<svg width="11" height="4" viewBox="0 0 11 4" fill="none" xmlns="http://www.w3.org/2000/svg">
<path d="M0.166243 0.0557023C0.155462 0.0394516 0.139728 0.0271095 0.121378 0.0205074C0.103028 0.0139053 0.083038 0.0133941 0.0643748 0.0190512C0.0457116 0.0247083 0.0293694 0.0362321 0.017773 0.0519115C0.00617669 0.0675908 -5.5589e-05 0.0865904 3.73613e-07 0.106092V1.26981C3.73613e-07 2.33277 2.30226 3.1892 5.13853 3.1892C7.97479 3.1892 10.2771 2.3328 10.2771 1.26981V0.0909759C10.2771 0.0714675 10.2709 0.0524577 10.2593 0.0367709C10.2477 0.0210841 10.2314 0.00955608 10.2127 0.00389776C10.194 -0.00176056 10.174 -0.00124643 10.1557 0.00536261C10.1373 0.0119716 10.1216 0.0243233 10.1108 0.0405847C9.53653 0.86678 7.52644 1.47637 5.13855 1.47637C2.75067 1.47637 0.740555 0.86678 0.166243 0.0557023Z" fill="#333333"/>
</svg>
