<svg width="11" height="4" viewBox="0 0 11 4" fill="none" xmlns="http://www.w3.org/2000/svg">
<path d="M0.166243 0.0406075C0.155463 0.0243585 0.139731 0.0120181 0.121383 0.00541553C0.103036 -0.00118706 0.0830482 -0.00169914 0.0643862 0.00395498C0.0457242 0.0096091 0.0293812 0.0211283 0.017783 0.0368038C0.0061848 0.0524793 -5.05868e-05 0.0714762 3.09114e-07 0.0909758V1.25469C3.09114e-07 2.31768 2.30226 3.17411 5.13853 3.17411C7.97479 3.17411 10.2771 2.31768 10.2771 1.25469V0.0909758C10.2771 0.0714675 10.2709 0.0524577 10.2593 0.0367709C10.2477 0.0210841 10.2314 0.00955608 10.2127 0.00389776C10.194 -0.00176056 10.174 -0.00124643 10.1557 0.0053626C10.1373 0.0119716 10.1216 0.0243233 10.1108 0.0405847C9.53653 0.866803 7.52644 1.47637 5.13855 1.47637C2.75067 1.47637 0.740555 0.851709 0.166243 0.0406075Z" fill="#333333"/>
</svg>
