<svg width="6" height="9" viewBox="0 0 6 9" fill="none" xmlns="http://www.w3.org/2000/svg">
<path d="M5.7911 1.08268C6.07793 0.827144 6.07793 0.444357 5.7911 0.191946C5.65362 0.0683673 5.4753 0 5.29045 0C5.1056 0 4.92727 0.0683673 4.7898 0.191946L3.00311 1.71997L1.21538 0.191946C1.07797 0.0686574 0.899861 0.000467758 0.71525 0.000467758C0.530638 0.000467758 0.352532 0.0686574 0.215123 0.191946C-0.0717075 0.446443 -0.0717075 0.828187 0.215123 1.08268L2.21667 2.80158V3.18332H0.785653C0.35593 3.18332 0.0722287 3.43886 0.0722287 3.81956C0.0722287 4.20235 0.358016 4.45789 0.785653 4.45789H2.21667V5.09517H0.785653C0.35593 5.09517 0.0722287 5.35071 0.0722287 5.73246C0.0722288 6.1142 0.358016 6.36974 0.785653 6.36974H2.21667V7.70689C2.21667 8.08864 2.50246 8.34418 2.9301 8.34418C3.35982 8.34418 3.64457 8.08864 3.64457 7.70689V6.36974H5.07559C5.50531 6.36974 5.78901 6.1142 5.78901 5.7335C5.78901 5.35071 5.50322 5.09517 5.07559 5.09517H3.64457V4.45789H5.07559C5.50531 4.45789 5.78901 4.20235 5.78901 3.82061C5.78901 3.43886 5.50322 3.18332 5.07559 3.18332H3.64457V2.92778L5.7911 1.08164V1.08268Z" fill="#333333"/>
</svg>
