<svg width="19" height="18" viewBox="0 0 19 18" fill="none" xmlns="http://www.w3.org/2000/svg">
<path d="M18.0385 13.3104C17.9268 13.2448 17.799 13.2103 17.6696 13.2103C17.5402 13.2103 17.4124 13.2448 17.3004 13.3104C17.0728 13.4439 16.9344 13.6903 16.9391 13.9531V14.4461C16.9391 15.3783 16.1813 16.1368 15.2498 16.1368H3.15087C2.21966 16.1368 1.46183 15.3783 1.46183 14.4461V5.56915H17.608L17.6125 5.56894C17.7569 5.55948 17.7651 5.55784 17.9017 5.51075L17.9062 5.5091C18.298 5.34416 18.4829 4.89069 18.3183 4.49851L18.3169 4.49522L16.7236 1.43568C16.3569 0.563702 15.5093 0 14.5641 0H3.83639C2.89121 0 2.04361 0.563702 1.67795 1.43362L0.0817608 4.49686L0.0747763 4.51537C0.0255655 4.61573 -1.47938e-05 4.72604 6.41863e-09 4.83784V14.4463C6.41863e-09 15.2886 0.327865 16.0806 0.922788 16.6764C1.51134 17.2654 2.29136 17.5926 3.12232 17.5998V17.6H15.2496C16.9867 17.6 18.3999 16.1853 18.3999 14.4463V13.9548C18.4021 13.8249 18.3699 13.6968 18.3064 13.5836C18.2429 13.4704 18.1504 13.3761 18.0385 13.3104ZM3.02022 2.00781L3.02207 2.00329C3.16012 1.67465 3.47936 1.46242 3.83557 1.46221H14.5639C14.7376 1.4621 14.9075 1.51344 15.0521 1.60975C15.1968 1.70607 15.3097 1.84306 15.3768 2.0035L15.3786 2.00802L16.5516 4.10591L1.84722 4.1055L3.02022 2.00781Z" fill="#333333"/>
</svg>
