<svg width="24" height="21" viewBox="0 0 24 21" fill="none" xmlns="http://www.w3.org/2000/svg">
<path d="M20.3768 21H3.6218C1.62424 21 0 19.3809 0 17.3896V3.61039C0 1.61912 1.62424 0 3.6218 0H20.3782C22.3758 0 24 1.61912 24 3.61039V17.3896C23.9986 19.3809 22.3744 21 20.3768 21ZM3.6218 1.66634C2.5464 1.66634 1.6716 2.53838 1.6716 3.61039V17.3896C1.6716 18.4616 2.5464 19.3337 3.6218 19.3337H20.3782C21.4536 19.3337 22.3284 18.4616 22.3284 17.3896V3.61039C22.3284 2.53838 21.4536 1.66634 20.3782 1.66634H3.6218Z" fill="#333333"/>
</svg>
