<svg width="20" height="19" viewBox="0 0 20 19" fill="none" xmlns="http://www.w3.org/2000/svg">
<path d="M9.32977 0C14.4821 0 18.6595 4.11886 18.6595 9.2004C18.6595 9.7092 18.6179 10.2132 18.5347 10.7074L18.7942 10.5588C18.9514 10.4692 19.1382 10.445 19.3134 10.4914C19.4887 10.5379 19.6382 10.6513 19.7292 10.8068L19.9739 11.2235C19.9868 11.2456 19.9951 11.27 19.9984 11.2953C20.0017 11.3206 19.9999 11.3462 19.9932 11.3709C19.9864 11.3955 19.9748 11.4185 19.9591 11.4387C19.9433 11.4588 19.9237 11.4757 19.9013 11.4884L17.7865 12.6917C17.6871 12.7485 17.5749 12.7797 17.4601 12.7823C17.3454 12.785 17.2318 12.7591 17.1298 12.707C17.0278 12.6549 16.9406 12.5783 16.8763 12.4842C16.812 12.3901 16.7726 12.2815 16.7618 12.1684C16.7334 12.0405 16.7419 11.9073 16.7862 11.784C17.0821 10.9539 17.2327 10.0799 17.2317 9.19959C17.2317 4.90063 13.6948 1.41414 9.32977 1.41414C4.96473 1.41414 1.42782 4.90063 1.42782 9.19959C1.42782 13.4994 4.96554 16.9867 9.32977 16.9867C10.5944 16.9867 11.8158 16.6935 12.9173 16.1403C13.0011 16.0957 13.093 16.0682 13.1878 16.0593C13.2825 16.0504 13.378 16.0604 13.4688 16.0886C13.5596 16.1168 13.6438 16.1626 13.7164 16.2235C13.789 16.2843 13.8486 16.3589 13.8916 16.4429C13.9347 16.5269 13.9604 16.6185 13.9672 16.7125C13.9739 16.8064 13.9617 16.9007 13.9311 16.9899C13.9005 17.0791 13.8523 17.1613 13.7891 17.2318C13.726 17.3022 13.6493 17.3595 13.5635 17.4002C12.2517 18.0595 10.8009 18.4021 9.32977 18.4C4.1782 18.4 0 14.2811 0 9.2004C0 4.11886 4.17739 0 9.32977 0ZM7.44423 5.47566L9.34527 7.33803L11.2365 5.47808C11.3834 5.33369 11.582 5.25272 11.789 5.25287C11.9961 5.25302 12.1946 5.33428 12.3412 5.47889L12.7573 5.89078L10.5283 8.08185H11.6869C11.8696 8.08019 12.0459 8.14792 12.1797 8.2711C12.3135 8.39427 12.3944 8.56352 12.4059 8.744C12.4174 8.92448 12.3586 9.10246 12.2415 9.24129C12.1245 9.38013 11.9581 9.46926 11.7766 9.49033L11.6869 9.49599H10.06V10.3981H11.6869C11.8696 10.3964 12.0459 10.4642 12.1797 10.5873C12.3135 10.7105 12.3944 10.8798 12.4059 11.0603C12.4174 11.2407 12.3586 11.4187 12.2415 11.5575C12.1245 11.6964 11.9581 11.7855 11.7766 11.8066L11.6869 11.8122H10.06L10.0608 12.9381C10.0608 13.1255 9.98559 13.3052 9.85171 13.4378C9.71783 13.5703 9.53624 13.6447 9.3469 13.6447C9.15756 13.6447 8.97598 13.5703 8.84209 13.4378C8.70821 13.3052 8.63299 13.1255 8.63299 12.9381V11.8114H6.98733C6.80688 11.8098 6.63374 11.7407 6.50273 11.6178C6.37173 11.495 6.29257 11.3276 6.2812 11.1493C6.26983 10.9711 6.32708 10.7951 6.44144 10.657C6.55579 10.5188 6.71877 10.4286 6.89758 10.4046L6.98733 10.3989H8.63218V9.49518H6.98733C6.80688 9.49359 6.63374 9.42442 6.50273 9.30158C6.37173 9.17874 6.29257 9.01134 6.2812 8.83308C6.26983 8.65481 6.32708 8.47889 6.44144 8.34071C6.55579 8.20254 6.71877 8.11235 6.89758 8.08831L6.98733 8.08265H8.16059L5.9234 5.89078L6.33869 5.47889C6.48506 5.33371 6.68358 5.25186 6.89079 5.25125C7.09799 5.25065 7.297 5.33134 7.44423 5.47566Z" fill="#333333"/>
</svg>
