<svg width="16" height="16" viewBox="0 0 16 16" fill="none" xmlns="http://www.w3.org/2000/svg">
<path d="M12.4099 15.1219V13.7518H11.0098V15.1228L12.4099 15.1219ZM14.4997 15.1228C14.8424 15.1228 15.1229 14.8424 15.1229 14.4997V13.7518H13.7809V15.1219M5.48416 1.37103V5.48416H1.37103V1.37103H5.48416ZM6.232 0H0.623189C0.280442 0 0 0.280442 0 0.623189V6.23198C0 6.57475 0.280442 6.85517 0.623189 6.85517H6.23198C6.57473 6.85517 6.85517 6.57473 6.85517 6.23198V0.623189C6.85519 0.280442 6.57475 0 6.232 0ZM2.74209 3.42761C2.74209 3.60942 2.81432 3.78378 2.94287 3.91234C3.07143 4.0409 3.2458 4.11313 3.42761 4.11313C3.60942 4.11313 3.78378 4.0409 3.91234 3.91234C4.0409 3.78378 4.11313 3.60942 4.11313 3.42761C4.11313 3.2458 4.0409 3.07143 3.91234 2.94287C3.78378 2.81431 3.60942 2.74209 3.42761 2.74209C3.2458 2.74209 3.07143 2.81431 2.94287 2.94287C2.81432 3.07143 2.74209 3.2458 2.74209 3.42761ZM13.7518 1.37103V5.48416H9.63873V1.37103H13.7518ZM14.4997 0H8.89088C8.54811 0 8.26769 0.280442 8.26769 0.623189V6.23198C8.26769 6.57475 8.54813 6.85517 8.89088 6.85517H14.4997C14.8424 6.85517 15.1229 6.57473 15.1229 6.23198V0.623189C15.1229 0.280442 14.8424 0 14.4997 0ZM11.0098 3.42761C11.0098 3.60942 11.082 3.78378 11.2105 3.91234C11.3391 4.0409 11.5135 4.11313 11.6953 4.11313C11.8771 4.11313 12.0515 4.0409 12.18 3.91234C12.3086 3.78378 12.3808 3.60942 12.3808 3.42761C12.3808 3.2458 12.3086 3.07143 12.18 2.94287C12.0515 2.81431 11.8771 2.74209 11.6953 2.74209C11.5135 2.74209 11.3391 2.81431 11.2105 2.94287C11.082 3.07143 11.0098 3.2458 11.0098 3.42761ZM5.48416 9.63868V13.7518H1.37103V9.63868H5.48416ZM6.232 8.26765H0.623189C0.280442 8.26765 0 8.54809 0 8.89084V14.4996C0 14.8424 0.280442 15.1228 0.623189 15.1228H6.23198C6.57475 15.1228 6.85517 14.8424 6.85517 14.4996V8.89084C6.85519 8.54809 6.57475 8.26765 6.232 8.26765ZM2.74209 11.6952C2.74209 11.877 2.81432 12.0514 2.94287 12.18C3.07143 12.3085 3.2458 12.3808 3.42761 12.3808C3.60942 12.3808 3.78378 12.3085 3.91234 12.18C4.0409 12.0514 4.11313 11.877 4.11313 11.6952C4.11313 11.5134 4.0409 11.3391 3.91234 11.2105C3.78378 11.0819 3.60942 11.0097 3.42761 11.0097C3.2458 11.0097 3.07143 11.0819 2.94287 11.2105C2.81432 11.3391 2.74209 11.5134 2.74209 11.6952ZM14.4997 8.26765H13.7353V11.0097H12.3642V8.26765H8.89088C8.54811 8.26765 8.26769 8.54809 8.26769 8.89084V14.4996C8.26769 14.8424 8.54813 15.1228 8.89088 15.1228H9.63873V13.7518V12.3808V11.0097H11.0098V12.3808H15.1229V8.89084C15.1229 8.54809 14.8424 8.26765 14.4997 8.26765Z" fill="#272636"/>
</svg>
