<svg width="20" height="20" viewBox="0 0 20 20" fill="none" xmlns="http://www.w3.org/2000/svg">
<path d="M17.2125 0H2.5C1.12083 0 0 1.12083 0 2.5V14.8333C0 16.2125 1.12083 17.3333 2.5 17.3333H17.2125C18.5917 17.3333 19.7125 16.2125 19.7125 14.8333V2.5C19.7125 1.12083 18.5917 0 17.2125 0ZM2.5 1.66667H17.2125C17.6708 1.66667 18.0458 2.04167 18.0458 2.5V4.3625H1.66667V2.5C1.66667 2.39056 1.68823 2.2822 1.7301 2.1811C1.77198 2.08 1.83336 1.98813 1.91075 1.91075C1.98813 1.83336 2.08 1.77198 2.1811 1.7301C2.2822 1.68823 2.39056 1.66667 2.5 1.66667ZM17.2125 15.6667H2.5C2.04167 15.6667 1.66667 15.2917 1.66667 14.8333V6.02917H18.0458V14.8333C18.0458 15.2917 17.6708 15.6667 17.2125 15.6667Z" fill="#333333"/>
</svg>

