<svg width="24" height="24" viewBox="0 0 24 24" fill="none" xmlns="http://www.w3.org/2000/svg">
<path d="M16.5494 7.70037C17.4704 6.8065 18.5562 5.46518 18.5562 4.04981C18.5562 3.23104 18.3059 2.56038 17.7207 2.03678C16.6318 1.06782 14.7064 1.06782 12.5307 1.06782H10.9411C8.93331 1.06782 7.25926 0.99272 6.17244 1.96273C5.58626 2.48424 5.33594 3.15594 5.33594 4.04981C5.33594 6.06283 7.34375 7.85161 8.26473 8.52227C8.60058 8.82162 9.18676 8.74652 9.43708 8.44717C9.77189 8.14887 9.68741 7.6284 9.35364 7.40415C7.93201 6.28604 7.01207 5.01981 7.01207 4.04981C7.01207 3.30405 7.26239 3.0798 7.34688 3.00679C7.93305 2.56038 9.35469 2.56038 10.9453 2.56038H12.7017C14.4592 2.56038 16.1343 2.56038 16.7205 3.08189C16.7205 3.15803 16.9708 3.38227 16.9708 4.05189C16.9708 4.9468 16.0488 6.21407 14.5427 7.33218C14.4298 7.39777 14.3432 7.50045 14.2975 7.62274C14.2519 7.74503 14.2501 7.87936 14.2923 8.00285C14.3747 8.22605 14.5427 8.44926 14.7951 8.59737C17.8897 9.6383 21.1533 12.4701 21.1533 16.3449C21.1533 19.9955 18.6428 21.3368 11.9487 21.3368C5.2525 21.3368 2.74404 19.9955 2.74404 16.3449C2.74404 14.1087 3.91535 11.8724 6.00868 10.2339C6.34349 9.93451 6.42589 9.4881 6.09317 9.19084C5.75732 8.89254 5.25667 8.81953 4.92186 9.11575C2.49163 11.0558 1.06686 13.6612 1.06686 16.3439C1.06686 22.8273 8.43057 22.8273 11.9455 22.8273C15.4605 22.8273 22.8263 22.8273 22.8263 16.3449C22.9108 12.7694 20.3179 9.41509 16.5505 7.70141L16.5494 7.70037Z" fill="#333333"/>
<path d="M15.0767 12.5589C15.3635 12.3033 15.3635 11.9206 15.0767 11.6681C14.9392 11.5446 14.7609 11.4762 14.5761 11.4762C14.3912 11.4762 14.2129 11.5446 14.0754 11.6681L12.2887 13.1962L10.501 11.6681C10.3636 11.5449 10.1855 11.4767 10.0009 11.4767C9.81625 11.4767 9.63815 11.5449 9.50074 11.6681C9.21391 11.9226 9.21391 12.3044 9.50074 12.5589L11.5023 14.2778V14.6595H10.0713C9.64154 14.6595 9.35784 14.9151 9.35784 15.2958C9.35784 15.6785 9.64363 15.9341 10.0713 15.9341H11.5023V16.5714H10.0713C9.64154 16.5714 9.35784 16.8269 9.35784 17.2087C9.35784 17.5904 9.64363 17.8459 10.0713 17.8459H11.5023V19.1831C11.5023 19.5648 11.7881 19.8204 12.2157 19.8204C12.6454 19.8204 12.9302 19.5648 12.9302 19.1831V17.8459H14.3612C14.7909 17.8459 15.0746 17.5904 15.0746 17.2097C15.0746 16.8269 14.7888 16.5714 14.3612 16.5714H12.9302V15.9341H14.3612C14.7909 15.9341 15.0746 15.6785 15.0746 15.2968C15.0746 14.9151 14.7888 14.6595 14.3612 14.6595H12.9302V14.404L15.0767 12.5578V12.5589Z" fill="#333333"/>
</svg>
