<svg width="15" height="14" viewBox="0 0 15 14" fill="none" xmlns="http://www.w3.org/2000/svg">
<path d="M6.64174 0.267821C6.82894 -0.0893669 7.34025 -0.0893658 7.52746 0.267822L9.40546 3.85102C9.47788 3.98919 9.61063 4.08565 9.76442 4.11182L13.7526 4.79064C14.1501 4.85831 14.3081 5.34459 14.0263 5.63301L11.1988 8.52637C11.0898 8.63794 11.0391 8.794 11.0617 8.94835L11.6485 12.9511C11.707 13.3501 11.2933 13.6506 10.9319 13.4717L7.30645 11.6767C7.16664 11.6075 7.00255 11.6075 6.86274 11.6767L3.23725 13.4717C2.87585 13.6506 2.4622 13.3501 2.52069 12.9511L3.10751 8.94835C3.13014 8.794 3.07943 8.63794 2.9704 8.52637L0.142905 5.63301C-0.138951 5.34459 0.0190527 4.85831 0.416609 4.79064L4.40477 4.11182C4.55856 4.08565 4.69131 3.98919 4.76373 3.85102L6.64174 0.267821Z" fill="#F6F6F6"/>
</svg>
