<svg width="10" height="7" viewBox="0 0 10 7" fill="none" xmlns="http://www.w3.org/2000/svg">
<path d="M5.46258 5.95386L9.46184 1.3834C9.56748 1.26282 9.63613 1.11435 9.65956 0.955768C9.683 0.797182 9.66022 0.635204 9.59397 0.489229C9.52771 0.343254 9.42078 0.219472 9.28599 0.132705C9.15119 0.0459376 8.99424 -0.000136005 8.83393 1.44081e-06H0.835423C0.675045 -0.000296635 0.517983 0.0456606 0.383062 0.132365C0.248142 0.219069 0.141086 0.342842 0.0747278 0.488848C0.00836932 0.634855 -0.0144769 0.7969 0.00892735 0.955561C0.0323316 1.11422 0.100993 1.26277 0.206683 1.3834L4.20594 5.95302C4.28421 6.04259 4.38073 6.11437 4.48903 6.16356C4.59733 6.21274 4.7149 6.23819 4.83385 6.23819C4.95279 6.23819 5.07036 6.21274 5.17866 6.16356C5.28696 6.11437 5.38348 6.04259 5.46175 5.95302L5.46258 5.95386Z" fill="#A7A7A7"/>
</svg>
