<svg width="16" height="11" viewBox="0 0 16 11" fill="none" xmlns="http://www.w3.org/2000/svg">
<path d="M7.82343 2.27733C10.0935 2.27743 12.2768 3.12886 13.9221 4.65566C14.046 4.77354 14.244 4.77205 14.366 4.65233L15.5503 3.48566C15.6121 3.42494 15.6465 3.34269 15.646 3.25711C15.6455 3.17153 15.6101 3.08967 15.5476 3.02966C11.2293 -1.00989 4.41686 -1.00989 0.0986455 3.02966C0.0360927 3.08963 0.000590913 3.17146 6.96764e-06 3.25704C-0.000562635 3.34262 0.033812 3.4249 0.0955503 3.48566L1.28018 4.65233C1.40212 4.77223 1.60032 4.77372 1.72413 4.65566C3.36958 3.12876 5.5531 2.27732 7.82343 2.27733ZM7.82343 6.073C9.07071 6.07292 10.2735 6.52545 11.198 7.34266C11.3231 7.45864 11.5201 7.45613 11.642 7.337L12.8249 6.17033C12.8872 6.10913 12.9218 6.02612 12.9209 5.93985C12.92 5.85359 12.8837 5.77127 12.8201 5.71133C10.0047 3.15495 5.6446 3.15495 2.82917 5.71133C2.76557 5.77127 2.72928 5.85363 2.72843 5.93992C2.72761 6.02621 2.7623 6.10922 2.82473 6.17033L4.00733 7.337C4.12923 7.45613 4.3262 7.45864 4.45125 7.34266C5.37518 6.52599 6.57698 6.0735 7.82343 6.073ZM10.0967 8.85733C10.16 8.79672 10.1948 8.71332 10.193 8.62681C10.1912 8.54031 10.1529 8.45836 10.0872 8.40033C8.7804 7.32144 6.86649 7.32144 5.55972 8.40033C5.49393 8.45832 5.45557 8.54023 5.4537 8.62674C5.45183 8.71325 5.48659 8.79668 5.54981 8.85733L7.59636 10.873C7.65634 10.9322 7.7381 10.9656 7.82343 10.9656C7.90876 10.9656 7.99055 10.9322 8.05053 10.873L10.0967 8.85733Z" fill="black"/>
</svg>
